<svg xmlns="http://www.w3.org/2000/svg"  viewBox="0 0 48 48" width="48px" height="48px"><path fill="#a5d6a7" d="M42,20.5c-1.657,0-3,1.343-3,3v-3.304c0-6.075-4.925-11-11-11s-11,4.925-11,11V23.5	c0-1.657-1.343-3-3-3s-3,1.343-3,3v11c0,1.657,1.343,3,3,3s3-1.343,3-3v2.435c0,1.585,1.285,2.87,2.87,2.87H20v5	c0,1.657,1.343,3,3,3s3-1.343,3-3v-5h4v5c0,1.657,1.343,3,3,3s3-1.343,3-3v-5h0.13c1.585,0,2.87-1.285,2.87-2.87V34.5	c0,1.657,1.343,3,3,3s3-1.343,3-3v-11C45,21.843,43.657,20.5,42,20.5z"/><path fill="none" stroke="#18193f" stroke-linecap="round" stroke-linejoin="round" stroke-width="3" d="M30,6.188	C28.253,5.117,26.199,4.5,24,4.5l0,0c-6.351,0-11.5,5.149-11.5,11.5v17.5c0,1.657,1.343,3,3,3h17c1.657,0,3-1.343,3-3V16	c0-1.681-0.361-3.278-1.009-4.718"/><path fill="none" stroke="#18193f" stroke-width="3" d="M29.5,44.5L29.5,44.5c1.657,0,3-1.343,3-3v-5h-6v5	C26.5,43.157,27.843,44.5,29.5,44.5z"/><path fill="none" stroke="#18193f" stroke-width="3" d="M18.5,44.5L18.5,44.5c1.657,0,3-1.343,3-3v-5h-6v5	C15.5,43.157,16.843,44.5,18.5,44.5z"/><line x1="16.872" x2="35" y1="16.5" y2="16.5" fill="none" stroke="#18193f" stroke-linecap="round" stroke-linejoin="round" stroke-width="3"/><circle cx="28.5" cy="11.5" r="1.5" fill="#18193f"/><circle cx="19.5" cy="11.5" r="1.5" fill="#18193f"/><line x1="30" x2="32.5" y1="6" y2="2.5" fill="none" stroke="#18193f" stroke-linecap="round" stroke-width="3"/><line x1="18" x2="15.5" y1="6" y2="2.5" fill="none" stroke="#18193f" stroke-linecap="round" stroke-width="3"/><path fill="none" stroke="#18193f" stroke-linecap="round" stroke-linejoin="round" stroke-width="3" d="M41.448,31.06	c-0.262,1.389-1.482,2.44-2.948,2.44l0,0c-1.657,0-3-1.343-3-3v-11c0-1.657,1.343-3,3-3l0,0c1.657,0,3,1.343,3,3v6.564"/><path fill="none" stroke="#18193f" stroke-linecap="round" stroke-linejoin="round" stroke-width="3" d="M6.5,19.5	c0-1.657,1.343-3,3-3l0,0c1.657,0,3,1.343,3,3"/><path fill="none" stroke="#18193f" stroke-linecap="round" stroke-linejoin="round" stroke-width="3" d="M12.5,19.5v11	c0,1.657-1.343,3-3,3l0,0c-1.657,0-3-1.343-3-3v-6.181"/></svg>